<svg
  version="1.1"
  xmlns="http://www.w3.org/2000/svg"
  xmlns:xlink="http://www.w3.org/1999/xlink"
  x="0px"
  y="0px"
  viewBox="20 20 245 265"
  style="enable-background: new 0 0 20 20 245 265;"
  xml:space="preserve"
>
  <style type="text/css">
    #rocket-mask-background,
    .rocket-window {
      fill: white;
    }
    #rocket-mask-content {
      fill: black;
    }
    #text {
      fill: white;
    }
    .st2 {
      clip-path: url(#SVGID_2_);
    }
    .st3 {
      fill: #db0d53;
    }
    .st4 {
      fill: #e52968;
    }
    .st5 {
      fill: #e5297c;
    }
    .st6 {
      fill: #391899;
    }
    .st7 {
      fill: #4029ae;
    }
    .st8 {
      fill: #6a109f;
    }
    .st9 {
      fill: #b816a2;
    }
    .st10 {
      fill: #e3139a;
    }
    .st11 {
      fill: #e62e58;
    }
    .st12 {
      fill: #ed4d42;
    }
    .st13 {
      fill: #f37322;
    }
    .st14 {
      fill: #e84f36;
    }
    .st15 {
      fill: #f58200;
    }
    .st16 {
      fill: #f9c100;
    }
    .st17 {
      fill: #ffc900;
    }
    .st18 {
      fill: #e65395;
    }
    .st19 {
      fill: #e44194;
    }
    .st20 {
      fill: #ee7d5c;
    }
    .st21 {
      fill: #f6a41a;
    }
    .st22 {
      fill: #fdc900;
    }
    .st23 {
      fill: #f9a900;
    }
    .st24 {
      fill: #ffd400;
    }
    .st25 {
      fill: #f0c100;
    }
    .st26 {
      fill: #e13f92;
    }
    .st27 {
      fill: #d5008c;
    }
    .st28 {
      fill: #ae009b;
    }
    .st29 {
      fill: #b41aa6;
    }
    .st30 {
      fill: #9d32b5;
    }
    .st31 {
      fill: #e16983;
    }
    .st32 {
      fill: #eed000;
    }
    .st33 {
      fill: #ffd300;
    }
    .st34 {
      fill: #520d9a;
    }
    .st35 {
      fill: #f09f2c;
    }
    .st36 {
      fill: #0a8a81;
    }
    .st37 {
      fill: #006b93;
    }
    .st38 {
      fill: #00517a;
    }
    .st39 {
      fill: #063862;
    }
    .st40 {
      fill: #32007f;
    }
    .st41 {
      fill: #035385;
    }
    .st42 {
      fill: #3947ba;
    }
    .st43 {
      fill: #6967be;
    }
    .st44 {
      fill: #cac316;
    }
    .st45 {
      fill: #246bb6;
    }
    .st46 {
      fill: #8dbc5a;
    }
    .st47 {
      fill: #0b7796;
    }
    .st48 {
      fill: #5ab266;
    }
    .st49 {
      fill: #1780aa;
    }
    .st50 {
      fill: #048485;
    }
    .st51 {
      fill: #087496;
    }
    .st52 {
      fill: #18a088;
    }
    .st53 {
      fill: #59af66;
    }
    .st54 {
      fill: #098c86;
    }
    .st55 {
      fill: #098386;
    }
    .st56 {
      fill: #fab400;
    }
    .st57 {
      fill: #c7c926;
    }
    .st58 {
      fill: #84c25e;
    }
    .st59 {
      fill: #cdc310;
    }
    .st60 {
      fill: #f6c100;
    }
    .st61 {
      fill: #bc0090;
    }
    .st62 {
      fill: #7e008c;
    }
    .st63 {
      fill: #5017a5;
    }
    .st64 {
      fill: #2d007b;
    }
    .st65 {
      fill: #24006c;
    }
    .st66 {
      clip-path: url(#SVGID_4_);
    }
    .st67 {
      fill: #ffffff;
    }
  </style>
  <g id="frame">
    <g>
      <defs>
        <path
          id="SVGID_1_"
          d="M236.78,68.42l-67.92-39.21c-16.11-9.3-36.14-9.3-52.25,0L48.69,68.42c-16.12,9.3-26.13,26.64-26.13,45.25
				v78.43c0,18.61,10.01,35.95,26.13,45.25l67.92,39.21c8.06,4.65,17.09,6.98,26.13,6.98c9.03,0,18.07-2.33,26.13-6.98l67.92-39.21
				c16.12-9.3,26.13-26.64,26.13-45.25v-78.43C262.91,95.07,252.9,77.73,236.78,68.42z M252.36,192.1
				c0,14.85-7.99,28.69-20.85,36.12l-67.92,39.21c-12.86,7.43-28.84,7.43-41.71,0l-67.92-39.21c-12.86-7.43-20.85-21.27-20.85-36.12
				v-78.43c0-14.85,7.99-28.69,20.85-36.12l67.92-39.21c6.43-3.71,13.64-5.57,20.85-5.57c7.21,0,14.42,1.86,20.85,5.57l67.92,39.21
				c12.86,7.43,20.85,21.27,20.85,36.12V192.1z"
        />
      </defs>
      <clipPath id="SVGID_2_">
        <use xlink:href="#SVGID_1_" style="overflow: visible;" />
      </clipPath>
      <g class="st2">
        <polygon class="st3" points="239.7,1.44 294.01,43.11 294.01,1.44 			" />
        <polygon
          class="st4"
          points="259.05,85.37 294.01,43.11 294.01,103.54 			"
        />
        <polygon class="st5" points="239.7,1.44 259.05,85.37 294.01,43.11 			" />
        <polygon class="st3" points="239.7,1.44 185.19,35.21 171.37,1.44 			" />
        <polygon class="st5" points="185.19,35.21 231.01,47.06 239.7,1.44 			" />
        <polygon class="st4" points="259.05,85.37 231.01,47.06 239.7,1.44 			" />
        <polyline
          class="st6"
          points="43.39,41.53 67.88,79.05 -2.23,65.42 43.39,41.53 			"
        />
        <polyline
          class="st7"
          points="92.37,1.44 67.88,79.05 43.39,41.53 92.37,1.44 			"
        />
        <polyline
          class="st8"
          points="118.44,43.4 67.88,79.05 92.37,1.44 118.44,43.4 			"
        />
        <polyline
          class="st9"
          points="161.49,35.21 118.44,43.4 136.21,1.44 161.49,35.21 			"
        />
        <polyline
          class="st10"
          points="161.49,35.21 185.19,35.21 171.37,1.44 161.49,35.21 			"
        />
        <polygon
          class="st11"
          points="259.05,85.37 245.03,128.82 294.01,103.54 			"
        />
        <polygon
          class="st12"
          points="294.01,161.44 245.03,128.82 294.01,103.54 			"
        />
        <polygon
          class="st13"
          points="245.03,128.82 272.68,195.18 294.01,161.44 			"
        />
        <polygon
          class="st14"
          points="294.01,229.54 272.68,195.18 294.01,161.44 			"
        />
        <polygon
          class="st15"
          points="259.05,264.5 294.01,229.54 294.01,281.29 			"
        />
        <polygon
          class="st16"
          points="294.01,297.67 259.05,264.5 294.01,281.29 			"
        />
        <polygon
          class="st17"
          points="245.03,297.67 259.05,264.5 294.01,297.67 			"
        />
        <polygon
          class="st18"
          points="231.01,47.06 200.75,107.1 259.05,85.37 			"
        />
        <polygon
          class="st19"
          points="245.03,128.82 200.75,107.1 259.05,85.37 			"
        />
        <polygon
          class="st20"
          points="205.53,184.51 200.75,107.1 245.03,128.82 			"
        />
        <polygon
          class="st21"
          points="272.68,195.18 205.53,184.51 245.03,128.82 			"
        />
        <polygon
          class="st21"
          points="259.05,264.5 272.68,195.18 294.01,229.54 			"
        />
        <polygon
          class="st22"
          points="205.53,184.51 231.01,236.65 272.68,195.18 			"
        />
        <polygon
          class="st23"
          points="259.05,264.5 231.01,236.65 272.68,195.18 			"
        />
        <polygon
          class="st24"
          points="193.4,297.67 259.05,264.5 245.03,297.67 			"
        />
        <polygon
          class="st25"
          points="231.01,236.65 193.4,297.67 259.05,264.5 			"
        />
        <polygon
          class="st26"
          points="185.19,35.21 200.75,107.1 231.01,47.06 			"
        />
        <polyline
          class="st27"
          points="161.49,35.21 200.75,107.1 185.19,35.21 161.49,35.21 			"
        />
        <polyline
          class="st28"
          points="118.44,43.4 125.12,85.37 161.49,35.21 118.44,43.4 			"
        />
        <polygon
          class="st29"
          points="200.75,107.1 125.12,85.37 161.49,35.21 			"
        />
        <polygon
          class="st30"
          points="125.12,85.37 162.8,128.82 200.75,107.1 			"
        />
        <polygon
          class="st31"
          points="205.53,184.51 162.8,128.82 200.75,107.1 			"
        />
        <polygon
          class="st32"
          points="172.89,225.19 205.53,184.51 231.01,236.65 			"
        />
        <polygon
          class="st33"
          points="193.4,297.67 172.89,225.19 231.01,236.65 			"
        />
        <polygon class="st34" points="67.88,79.05 125.12,85.37 118.44,43.4 			" />
        <polygon
          class="st35"
          points="162.8,128.82 140.75,179.18 205.53,184.51 			"
        />
        <polygon
          class="st36"
          points="-2.23,255.42 40.43,297.67 -2.23,297.67 			"
        />
        <polygon class="st37" points="37.47,225.19 -2.23,255.42 -2.23,201.1 			" />
        <polygon class="st38" points="-2.23,154.66 40.43,149.56 -2.23,201.1 			" />
        <polygon class="st39" points="-2.23,107.1 40.43,149.56 -2.23,154.66 			" />
        <polyline
          class="st40"
          points="-2.23,65.42 67.88,79.05 -2.23,107.1 -2.23,65.42 			"
        />
        <polygon class="st41" points="40.43,149.56 67.88,79.05 -2.23,107.1 			" />
        <polygon
          class="st42"
          points="125.12,85.37 105.27,118.15 67.88,79.05 			"
        />
        <polygon
          class="st43"
          points="162.8,128.82 105.27,118.15 125.12,85.37 			"
        />
        <polygon
          class="st44"
          points="140.75,179.18 105.27,118.15 162.8,128.82 			"
        />
        <polygon
          class="st45"
          points="40.43,149.56 105.27,118.15 67.88,79.05 			"
        />
        <polygon
          class="st46"
          points="140.75,179.18 96.28,195.49 105.27,118.15 			"
        />
        <polygon
          class="st47"
          points="40.43,149.56 79.53,165.12 105.27,118.15 			"
        />
        <polygon
          class="st48"
          points="96.28,195.49 79.53,165.12 105.27,118.15 			"
        />
        <polygon class="st49" points="-2.23,201.1 79.53,165.12 40.43,149.56 			" />
        <polygon
          class="st50"
          points="96.28,195.49 37.47,225.19 79.53,165.12 			"
        />
        <polygon class="st51" points="-2.23,201.1 37.47,225.19 79.53,165.12 			" />
        <polygon
          class="st52"
          points="37.47,225.19 40.43,297.67 -2.23,255.42 			"
        />
        <polygon
          class="st53"
          points="91.04,242.82 37.47,225.19 96.28,195.49 			"
        />
        <polygon
          class="st54"
          points="40.43,297.67 91.04,242.82 37.47,225.19 			"
        />
        <polygon
          class="st55"
          points="111.15,297.67 91.04,242.82 40.43,297.67 			"
        />
        <polygon
          class="st56"
          points="172.89,225.19 111.15,297.67 193.4,297.67 			"
        />
        <polygon
          class="st57"
          points="91.04,242.82 172.89,225.19 111.15,297.67 			"
        />
        <polygon
          class="st58"
          points="96.28,195.49 172.89,225.19 91.04,242.82 			"
        />
        <polygon
          class="st59"
          points="140.75,179.18 172.89,225.19 96.28,195.49 			"
        />
        <polygon
          class="st60"
          points="205.53,184.51 172.89,225.19 140.75,179.18 			"
        />
        <polygon class="st61" points="171.37,1.44 161.49,35.21 136.21,1.44 			" />
        <polygon class="st62" points="136.21,1.44 118.44,43.4 92.37,1.44 			" />
        <polygon class="st63" points="50.11,1.44 43.39,41.53 92.37,1.44 			" />
        <polygon class="st64" points="-2.23,1.44 43.39,41.53 50.11,1.44 			" />
        <polygon class="st65" points="-2.23,65.42 43.39,41.53 -2.23,1.44 			" />
      </g>
      <g class="st2">
        <polygon class="st3" points="235.83,5.31 290.14,46.98 290.14,5.31 			" />
        <polygon
          class="st4"
          points="255.18,89.24 290.14,46.98 290.14,107.41 			"
        />
        <polygon class="st5" points="235.83,5.31 255.18,89.24 290.14,46.98 			" />
        <polygon class="st3" points="235.83,5.31 181.32,39.08 167.49,5.31 			" />
        <polygon class="st5" points="181.32,39.08 227.14,50.93 235.83,5.31 			" />
        <polygon class="st4" points="255.18,89.24 227.14,50.93 235.83,5.31 			" />
        <polyline
          class="st6"
          points="39.52,45.4 64.01,82.92 -6.1,69.3 39.52,45.4 			"
        />
        <polyline
          class="st7"
          points="88.5,5.31 64.01,82.92 39.52,45.4 88.5,5.31 			"
        />
        <polyline
          class="st8"
          points="114.57,47.28 64.01,82.92 88.5,5.31 114.57,47.28 			"
        />
        <polyline
          class="st9"
          points="157.62,39.08 114.57,47.28 132.34,5.31 157.62,39.08 			"
        />
        <polyline
          class="st10"
          points="157.62,39.08 181.32,39.08 167.49,5.31 157.62,39.08 			"
        />
        <polygon
          class="st11"
          points="255.18,89.24 241.16,132.69 290.14,107.41 			"
        />
        <polygon
          class="st12"
          points="290.14,165.31 241.16,132.69 290.14,107.41 			"
        />
        <polygon
          class="st13"
          points="241.16,132.69 268.81,199.05 290.14,165.31 			"
        />
        <polygon
          class="st14"
          points="290.14,233.41 268.81,199.05 290.14,165.31 			"
        />
        <polygon
          class="st15"
          points="255.18,268.37 290.14,233.41 290.14,285.17 			"
        />
        <polygon
          class="st16"
          points="290.14,301.55 255.18,268.37 290.14,285.17 			"
        />
        <polygon
          class="st17"
          points="241.16,301.55 255.18,268.37 290.14,301.55 			"
        />
        <polygon
          class="st18"
          points="227.14,50.93 196.87,110.97 255.18,89.24 			"
        />
        <polygon
          class="st19"
          points="241.16,132.69 196.87,110.97 255.18,89.24 			"
        />
        <polygon
          class="st20"
          points="201.66,188.39 196.87,110.97 241.16,132.69 			"
        />
        <polygon
          class="st21"
          points="268.81,199.05 201.66,188.39 241.16,132.69 			"
        />
        <polygon
          class="st21"
          points="255.18,268.37 268.81,199.05 290.14,233.41 			"
        />
        <polygon
          class="st22"
          points="201.66,188.39 227.14,240.52 268.81,199.05 			"
        />
        <polygon
          class="st23"
          points="255.18,268.37 227.14,240.52 268.81,199.05 			"
        />
        <polygon
          class="st24"
          points="189.53,301.55 255.18,268.37 241.16,301.55 			"
        />
        <polygon
          class="st25"
          points="227.14,240.52 189.53,301.55 255.18,268.37 			"
        />
        <polygon
          class="st26"
          points="181.32,39.08 196.87,110.97 227.14,50.93 			"
        />
        <polyline
          class="st27"
          points="157.62,39.08 196.87,110.97 181.32,39.08 157.62,39.08 			"
        />
        <polyline
          class="st28"
          points="114.57,47.28 121.25,89.24 157.62,39.08 114.57,47.28 			"
        />
        <polygon
          class="st29"
          points="196.87,110.97 121.25,89.24 157.62,39.08 			"
        />
        <polygon
          class="st30"
          points="121.25,89.24 158.92,132.69 196.87,110.97 			"
        />
        <polygon
          class="st31"
          points="201.66,188.39 158.92,132.69 196.87,110.97 			"
        />
        <polygon
          class="st32"
          points="169.01,229.07 201.66,188.39 227.14,240.52 			"
        />
        <polygon
          class="st33"
          points="189.53,301.55 169.01,229.07 227.14,240.52 			"
        />
        <polygon class="st34" points="64.01,82.92 121.25,89.24 114.57,47.28 			" />
        <polygon
          class="st35"
          points="158.92,132.69 136.88,183.05 201.66,188.39 			"
        />
        <polygon class="st36" points="-6.1,259.29 36.56,301.55 -6.1,301.55 			" />
        <polygon class="st37" points="33.6,229.07 -6.1,259.29 -6.1,204.97 			" />
        <polygon class="st38" points="-6.1,158.53 36.56,153.43 -6.1,204.97 			" />
        <polygon class="st39" points="-6.1,110.97 36.56,153.43 -6.1,158.53 			" />
        <polyline
          class="st40"
          points="-6.1,69.3 64.01,82.92 -6.1,110.97 -6.1,69.3 			"
        />
        <polygon class="st41" points="36.56,153.43 64.01,82.92 -6.1,110.97 			" />
        <polygon class="st42" points="121.25,89.24 101.4,122.03 64.01,82.92 			" />
        <polygon
          class="st43"
          points="158.92,132.69 101.4,122.03 121.25,89.24 			"
        />
        <polygon
          class="st44"
          points="136.88,183.05 101.4,122.03 158.92,132.69 			"
        />
        <polygon class="st45" points="36.56,153.43 101.4,122.03 64.01,82.92 			" />
        <polygon
          class="st46"
          points="136.88,183.05 92.41,199.36 101.4,122.03 			"
        />
        <polygon class="st47" points="36.56,153.43 75.66,169 101.4,122.03 			" />
        <polygon class="st48" points="92.41,199.36 75.66,169 101.4,122.03 			" />
        <polygon class="st49" points="-6.1,204.97 75.66,169 36.56,153.43 			" />
        <polygon class="st50" points="92.41,199.36 33.6,229.07 75.66,169 			" />
        <polygon class="st51" points="-6.1,204.97 33.6,229.07 75.66,169 			" />
        <polygon class="st52" points="33.6,229.07 36.56,301.55 -6.1,259.29 			" />
        <polygon class="st53" points="87.16,246.7 33.6,229.07 92.41,199.36 			" />
        <polygon class="st54" points="36.56,301.55 87.16,246.7 33.6,229.07 			" />
        <polygon
          class="st55"
          points="107.28,301.55 87.16,246.7 36.56,301.55 			"
        />
        <polygon
          class="st56"
          points="169.01,229.07 107.28,301.55 189.53,301.55 			"
        />
        <polygon
          class="st57"
          points="87.16,246.7 169.01,229.07 107.28,301.55 			"
        />
        <polygon
          class="st58"
          points="92.41,199.36 169.01,229.07 87.16,246.7 			"
        />
        <polygon
          class="st59"
          points="136.88,183.05 169.01,229.07 92.41,199.36 			"
        />
        <polygon
          class="st60"
          points="201.66,188.39 169.01,229.07 136.88,183.05 			"
        />
        <polygon class="st61" points="167.49,5.31 157.62,39.08 132.34,5.31 			" />
        <polygon class="st62" points="132.34,5.31 114.57,47.28 88.5,5.31 			" />
        <polygon class="st63" points="46.23,5.31 39.52,45.4 88.5,5.31 			" />
        <polygon class="st64" points="-6.1,5.31 39.52,45.4 46.23,5.31 			" />
        <polygon class="st65" points="-6.1,69.3 39.52,45.4 -6.1,5.31 			" />
      </g>
    </g>
  </g>
  <g id="hexagon" mask="url(#rocketMask)">
    <g>
      <defs>
        <path
          id="SVGID_3_"
          d="M215.99,88.86l-54.43-31.43c-11.65-6.73-26-6.73-37.65,0L69.48,88.86c-11.65,6.73-18.83,19.16-18.83,32.61
				v55.72v7.14c0,7.16,2.05,14.03,5.72,19.91c1.9,3.04,4.22,5.83,6.93,8.24c1.88,1.67,3.95,3.17,6.18,4.46l50.18,28.97l4.25,2.45
				c11.65,6.73,26,6.73,37.65,0l4.25-2.45l50.18-28.97c2.23-1.29,4.29-2.79,6.18-4.46c2.71-2.41,5.03-5.19,6.93-8.24
				c3.66-5.88,5.72-12.74,5.72-19.91v-7.14v-55.72C234.82,108.01,227.64,95.58,215.99,88.86z"
        />
      </defs>
      <clipPath id="SVGID_4_">
        <use xlink:href="#SVGID_3_" style="overflow: visible;" />
      </clipPath>
      <g class="st66">
        <polygon class="st3" points="241.93,2.42 296.24,44.09 296.24,2.42 			" />
        <polygon
          class="st4"
          points="261.28,86.36 296.24,44.09 296.24,104.53 			"
        />
        <polygon class="st5" points="241.93,2.42 261.28,86.36 296.24,44.09 			" />
        <polygon class="st3" points="241.93,2.42 187.42,36.19 173.6,2.42 			" />
        <polygon class="st5" points="187.42,36.19 233.24,48.04 241.93,2.42 			" />
        <polygon class="st4" points="261.28,86.36 233.24,48.04 241.93,2.42 			" />
        <polyline
          class="st6"
          points="45.62,42.51 70.11,80.04 0,66.41 45.62,42.51 			"
        />
        <polyline
          class="st7"
          points="94.6,2.42 70.11,80.04 45.62,42.51 94.6,2.42 			"
        />
        <polyline
          class="st8"
          points="120.67,44.39 70.11,80.04 94.6,2.42 120.67,44.39 			"
        />
        <polyline
          class="st9"
          points="163.72,36.19 120.67,44.39 138.44,2.42 163.72,36.19 			"
        />
        <polyline
          class="st10"
          points="163.72,36.19 187.42,36.19 173.6,2.42 163.72,36.19 			"
        />
        <polygon
          class="st11"
          points="261.28,86.36 247.26,129.8 296.24,104.53 			"
        />
        <polygon
          class="st12"
          points="296.24,162.42 247.26,129.8 296.24,104.53 			"
        />
        <polygon
          class="st13"
          points="247.26,129.8 274.91,196.16 296.24,162.42 			"
        />
        <polygon
          class="st14"
          points="296.24,230.52 274.91,196.16 296.24,162.42 			"
        />
        <polygon
          class="st15"
          points="261.28,265.48 296.24,230.52 296.24,282.28 			"
        />
        <polygon
          class="st16"
          points="296.24,298.66 261.28,265.48 296.24,282.28 			"
        />
        <polygon
          class="st17"
          points="247.26,298.66 261.28,265.48 296.24,298.66 			"
        />
        <polygon
          class="st18"
          points="233.24,48.04 202.97,108.08 261.28,86.36 			"
        />
        <polygon
          class="st19"
          points="247.26,129.8 202.97,108.08 261.28,86.36 			"
        />
        <polygon
          class="st20"
          points="207.76,185.5 202.97,108.08 247.26,129.8 			"
        />
        <polygon
          class="st21"
          points="274.91,196.16 207.76,185.5 247.26,129.8 			"
        />
        <polygon
          class="st21"
          points="261.28,265.48 274.91,196.16 296.24,230.52 			"
        />
        <polygon
          class="st22"
          points="207.76,185.5 233.24,237.63 274.91,196.16 			"
        />
        <polygon
          class="st23"
          points="261.28,265.48 233.24,237.63 274.91,196.16 			"
        />
        <polygon
          class="st24"
          points="195.63,298.66 261.28,265.48 247.26,298.66 			"
        />
        <polygon
          class="st25"
          points="233.24,237.63 195.63,298.66 261.28,265.48 			"
        />
        <polygon
          class="st26"
          points="187.42,36.19 202.97,108.08 233.24,48.04 			"
        />
        <polyline
          class="st27"
          points="163.72,36.19 202.97,108.08 187.42,36.19 163.72,36.19 			"
        />
        <polyline
          class="st28"
          points="120.67,44.39 127.35,86.36 163.72,36.19 120.67,44.39 			"
        />
        <polygon
          class="st29"
          points="202.97,108.08 127.35,86.36 163.72,36.19 			"
        />
        <polygon
          class="st30"
          points="127.35,86.36 165.02,129.8 202.97,108.08 			"
        />
        <polygon
          class="st31"
          points="207.76,185.5 165.02,129.8 202.97,108.08 			"
        />
        <polygon
          class="st32"
          points="175.11,226.18 207.76,185.5 233.24,237.63 			"
        />
        <polygon
          class="st33"
          points="195.63,298.66 175.11,226.18 233.24,237.63 			"
        />
        <polygon class="st34" points="70.11,80.04 127.35,86.36 120.67,44.39 			" />
        <polygon
          class="st35"
          points="165.02,129.8 142.98,180.16 207.76,185.5 			"
        />
        <polygon class="st36" points="0,256.4 42.66,298.66 0,298.66 			" />
        <polygon class="st37" points="39.7,226.18 0,256.4 0,202.09 			" />
        <polygon class="st38" points="0,155.64 42.66,150.54 0,202.09 			" />
        <polygon class="st39" points="0,108.08 42.66,150.54 0,155.64 			" />
        <polyline class="st40" points="0,66.41 70.11,80.04 0,108.08 0,66.41 			" />
        <polygon class="st41" points="42.66,150.54 70.11,80.04 0,108.08 			" />
        <polygon class="st42" points="127.35,86.36 107.5,119.14 70.11,80.04 			" />
        <polygon
          class="st43"
          points="165.02,129.8 107.5,119.14 127.35,86.36 			"
        />
        <polygon
          class="st44"
          points="142.98,180.16 107.5,119.14 165.02,129.8 			"
        />
        <polygon class="st45" points="42.66,150.54 107.5,119.14 70.11,80.04 			" />
        <polygon
          class="st46"
          points="142.98,180.16 98.51,196.47 107.5,119.14 			"
        />
        <polygon
          class="st47"
          points="42.66,150.54 81.76,166.11 107.5,119.14 			"
        />
        <polygon
          class="st48"
          points="98.51,196.47 81.76,166.11 107.5,119.14 			"
        />
        <polygon class="st49" points="0,202.09 81.76,166.11 42.66,150.54 			" />
        <polygon class="st50" points="98.51,196.47 39.7,226.18 81.76,166.11 			" />
        <polygon class="st51" points="0,202.09 39.7,226.18 81.76,166.11 			" />
        <polygon class="st52" points="39.7,226.18 42.66,298.66 0,256.4 			" />
        <polygon class="st53" points="93.26,243.81 39.7,226.18 98.51,196.47 			" />
        <polygon class="st54" points="42.66,298.66 93.26,243.81 39.7,226.18 			" />
        <polygon
          class="st55"
          points="113.38,298.66 93.26,243.81 42.66,298.66 			"
        />
        <polygon
          class="st56"
          points="175.11,226.18 113.38,298.66 195.63,298.66 			"
        />
        <polygon
          class="st57"
          points="93.26,243.81 175.11,226.18 113.38,298.66 			"
        />
        <polygon
          class="st58"
          points="98.51,196.47 175.11,226.18 93.26,243.81 			"
        />
        <polygon
          class="st59"
          points="142.98,180.16 175.11,226.18 98.51,196.47 			"
        />
        <polygon
          class="st60"
          points="207.76,185.5 175.11,226.18 142.98,180.16 			"
        />
        <polygon class="st61" points="173.6,2.42 163.72,36.19 138.44,2.42 			" />
        <polygon class="st62" points="138.44,2.42 120.67,44.39 94.6,2.42 			" />
        <polygon class="st63" points="52.34,2.42 45.62,42.51 94.6,2.42 			" />
        <polygon class="st64" points="0,2.42 45.62,42.51 52.34,2.42 			" />
        <polygon class="st65" points="0,66.41 45.62,42.51 0,2.42 			" />
      </g>
      <g class="st66">
        <polygon class="st3" points="236.54,4.42 290.85,46.09 290.85,4.42 			" />
        <polygon class="st4" points="255.9,88.36 290.85,46.09 290.85,106.53 			" />
        <polygon class="st5" points="236.54,4.42 255.9,88.36 290.85,46.09 			" />
        <polygon class="st3" points="236.54,4.42 182.03,38.19 168.21,4.42 			" />
        <polygon class="st5" points="182.03,38.19 227.85,50.04 236.54,4.42 			" />
        <polygon class="st4" points="255.9,88.36 227.85,50.04 236.54,4.42 			" />
        <polyline
          class="st6"
          points="40.24,44.51 64.72,82.04 -5.39,68.41 40.24,44.51 			"
        />
        <polyline
          class="st7"
          points="89.21,4.42 64.72,82.04 40.24,44.51 89.21,4.42 			"
        />
        <polyline
          class="st8"
          points="115.28,46.39 64.72,82.04 89.21,4.42 115.28,46.39 			"
        />
        <polyline
          class="st9"
          points="158.34,38.19 115.28,46.39 133.06,4.42 158.34,38.19 			"
        />
        <polyline
          class="st10"
          points="158.34,38.19 182.03,38.19 168.21,4.42 158.34,38.19 			"
        />
        <polygon
          class="st11"
          points="255.9,88.36 241.87,131.8 290.85,106.53 			"
        />
        <polygon
          class="st12"
          points="290.85,164.42 241.87,131.8 290.85,106.53 			"
        />
        <polygon
          class="st13"
          points="241.87,131.8 269.52,198.16 290.85,164.42 			"
        />
        <polygon
          class="st14"
          points="290.85,232.52 269.52,198.16 290.85,164.42 			"
        />
        <polygon
          class="st15"
          points="255.9,267.48 290.85,232.52 290.85,284.28 			"
        />
        <polygon
          class="st16"
          points="290.85,300.66 255.9,267.48 290.85,284.28 			"
        />
        <polygon
          class="st17"
          points="241.87,300.66 255.9,267.48 290.85,300.66 			"
        />
        <polygon
          class="st18"
          points="227.85,50.04 197.59,110.08 255.9,88.36 			"
        />
        <polygon
          class="st19"
          points="241.87,131.8 197.59,110.08 255.9,88.36 			"
        />
        <polygon
          class="st20"
          points="202.38,187.5 197.59,110.08 241.87,131.8 			"
        />
        <polygon
          class="st21"
          points="269.52,198.16 202.38,187.5 241.87,131.8 			"
        />
        <polygon
          class="st21"
          points="255.9,267.48 269.52,198.16 290.85,232.52 			"
        />
        <polygon
          class="st22"
          points="202.38,187.5 227.85,239.63 269.52,198.16 			"
        />
        <polygon
          class="st23"
          points="255.9,267.48 227.85,239.63 269.52,198.16 			"
        />
        <polygon
          class="st24"
          points="190.24,300.66 255.9,267.48 241.87,300.66 			"
        />
        <polygon
          class="st25"
          points="227.85,239.63 190.24,300.66 255.9,267.48 			"
        />
        <polygon
          class="st26"
          points="182.03,38.19 197.59,110.08 227.85,50.04 			"
        />
        <polyline
          class="st27"
          points="158.34,38.19 197.59,110.08 182.03,38.19 158.34,38.19 			"
        />
        <polyline
          class="st28"
          points="115.28,46.39 121.97,88.36 158.34,38.19 115.28,46.39 			"
        />
        <polygon
          class="st29"
          points="197.59,110.08 121.97,88.36 158.34,38.19 			"
        />
        <polygon
          class="st30"
          points="121.97,88.36 159.64,131.8 197.59,110.08 			"
        />
        <polygon
          class="st31"
          points="202.38,187.5 159.64,131.8 197.59,110.08 			"
        />
        <polygon
          class="st32"
          points="169.73,228.18 202.38,187.5 227.85,239.63 			"
        />
        <polygon
          class="st33"
          points="190.24,300.66 169.73,228.18 227.85,239.63 			"
        />
        <polygon class="st34" points="64.72,82.04 121.97,88.36 115.28,46.39 			" />
        <polygon
          class="st35"
          points="159.64,131.8 137.6,182.16 202.38,187.5 			"
        />
        <polygon class="st36" points="-5.39,258.4 37.27,300.66 -5.39,300.66 			" />
        <polygon class="st37" points="34.31,228.18 -5.39,258.4 -5.39,204.09 			" />
        <polygon
          class="st38"
          points="-5.39,157.64 37.27,152.54 -5.39,204.09 			"
        />
        <polygon
          class="st39"
          points="-5.39,110.08 37.27,152.54 -5.39,157.64 			"
        />
        <polyline
          class="st40"
          points="-5.39,68.41 64.72,82.04 -5.39,110.08 -5.39,68.41 			"
        />
        <polygon class="st41" points="37.27,152.54 64.72,82.04 -5.39,110.08 			" />
        <polygon
          class="st42"
          points="121.97,88.36 102.12,121.14 64.72,82.04 			"
        />
        <polygon
          class="st43"
          points="159.64,131.8 102.12,121.14 121.97,88.36 			"
        />
        <polygon
          class="st44"
          points="137.6,182.16 102.12,121.14 159.64,131.8 			"
        />
        <polygon
          class="st45"
          points="37.27,152.54 102.12,121.14 64.72,82.04 			"
        />
        <polygon
          class="st46"
          points="137.6,182.16 93.13,198.47 102.12,121.14 			"
        />
        <polygon
          class="st47"
          points="37.27,152.54 76.38,168.11 102.12,121.14 			"
        />
        <polygon
          class="st48"
          points="93.13,198.47 76.38,168.11 102.12,121.14 			"
        />
        <polygon
          class="st49"
          points="-5.39,204.09 76.38,168.11 37.27,152.54 			"
        />
        <polygon
          class="st50"
          points="93.13,198.47 34.31,228.18 76.38,168.11 			"
        />
        <polygon
          class="st51"
          points="-5.39,204.09 34.31,228.18 76.38,168.11 			"
        />
        <polygon class="st52" points="34.31,228.18 37.27,300.66 -5.39,258.4 			" />
        <polygon
          class="st53"
          points="87.88,245.81 34.31,228.18 93.13,198.47 			"
        />
        <polygon
          class="st54"
          points="37.27,300.66 87.88,245.81 34.31,228.18 			"
        />
        <polygon class="st55" points="108,300.66 87.88,245.81 37.27,300.66 			" />
        <polygon
          class="st56"
          points="169.73,228.18 108,300.66 190.24,300.66 			"
        />
        <polygon class="st57" points="87.88,245.81 169.73,228.18 108,300.66 			" />
        <polygon
          class="st58"
          points="93.13,198.47 169.73,228.18 87.88,245.81 			"
        />
        <polygon
          class="st59"
          points="137.6,182.16 169.73,228.18 93.13,198.47 			"
        />
        <polygon
          class="st60"
          points="202.38,187.5 169.73,228.18 137.6,182.16 			"
        />
        <polygon class="st61" points="168.21,4.42 158.34,38.19 133.06,4.42 			" />
        <polygon class="st62" points="133.06,4.42 115.28,46.39 89.21,4.42 			" />
        <polygon class="st63" points="46.95,4.42 40.24,44.51 89.21,4.42 			" />
        <polygon class="st64" points="-5.39,4.42 40.24,44.51 46.95,4.42 			" />
        <polygon class="st65" points="-5.39,68.41 40.24,44.51 -5.39,4.42 			" />
      </g>
    </g>
  </g>
  <g id="rocket">
    <!--  -->

    <mask id="rocketMask">
      <rect id="rocket-mask-background" width="280" height="500" />
      <g id="rocket-mask-content">
        <path
          class="st1"
          d="M206.17,202.46c-4.6,0-8.98,1.62-12.46,4.59c-5.67-6.19-13.69-9.73-22.07-9.75l-0.16-0.01l-0.06,0
			c-5.13,0.17-9.14-1.12-11.95-3.84c-4.26-4.14-4.34-10.42-4.34-10.47c0-0.17-0.03-0.34-0.08-0.51v-16.2c0-0.92,0.55-1.73,1.35-2.09
			l8.66,16.52c0.29,0.55,0.85,0.91,1.43,0.93c0.64,0.06,1.24-0.26,1.59-0.81c0.61-0.96,1.21-1.9,1.81-2.81l0.14-0.22
			c0.58-0.89,1.16-1.76,1.76-2.66c0.56-0.84,1.11-1.65,1.64-2.44l1.4-2.06c0.57-0.83,1.11-1.64,1.64-2.42l0.3-0.44
			c1.1-1.64,1.96-2.96,2.7-4.15c0.05-0.07,0.1-0.14,0.14-0.22c0.42-0.68,0.83-1.35,1.21-2.01c6.78-11.71,6.67-20.22-12.3-36.58
			c1.82-10.23,2.6-18.89,2.32-25.77c-0.32-7.87-3.13-16.04-8.37-24.28c-0.03-0.05-0.05-0.1-0.09-0.15l-0.66-1.02
			c-0.34-0.51-0.68-1.01-1.03-1.51l-0.26-0.37c-0.32-0.45-0.64-0.89-1-1.39l-0.09-0.12c-0.35-0.48-0.71-0.94-1.07-1.41L158,68.45
			c-0.36-0.45-0.71-0.9-1.07-1.34l-0.1-0.12c-0.33-0.41-0.67-0.8-1-1.2l-0.27-0.32c-0.35-0.41-0.69-0.8-1.04-1.19l-0.21-0.23
			c-0.3-0.34-0.6-0.66-0.89-0.98l-0.24-0.26c-0.34-0.36-0.67-0.71-1-1.06l-0.23-0.24c-0.29-0.3-0.57-0.58-0.85-0.87l-0.18-0.18
			c-0.32-0.32-0.62-0.62-0.93-0.92l-0.23-0.23c-0.2-0.19-0.4-0.39-0.59-0.57l-0.31-0.3c-0.03-0.03-0.06-0.06-0.09-0.08l-0.12-0.12h0
			c-0.21-0.2-0.43-0.4-0.66-0.62l-0.17-0.15c-0.26-0.24-0.51-0.47-0.71-0.64l-2.52-2.16c0,0-0.03-0.03-0.05-0.04l0,0l-1.38-1.1
			l-0.17,0.2c-0.47-0.06-0.96,0.07-1.37,0.38l-3.08,2.61l-0.11,0.09c-0.24,0.21-0.49,0.44-0.75,0.68l-0.22,0.2
			c-0.27,0.25-0.54,0.5-0.83,0.78l-0.08,0.07c-0.27,0.25-0.54,0.52-0.82,0.79l-0.24,0.23c-0.3,0.3-0.61,0.6-0.93,0.92l-0.17,0.18
			c-0.28,0.28-0.56,0.57-0.85,0.87l-0.24,0.25c-0.33,0.34-0.66,0.69-1,1.06l-0.24,0.26c-0.3,0.32-0.59,0.65-0.95,1.05l-0.15,0.17
			c-0.34,0.39-0.69,0.78-1.04,1.19l-0.27,0.32c-0.21,0.25-0.42,0.5-0.65,0.77l0,0l-0.39,0.47c0,0-0.01,0.01-0.01,0.02h0l-0.07,0.09
			l0,0l-0.64,0.78l0.01,0.01c-0.15,0.18-0.3,0.38-0.46,0.58l-0.27,0.35c-0.35,0.45-0.69,0.9-1.03,1.36l-0.21,0.28
			c-0.3,0.4-0.59,0.81-0.88,1.22l-0.21,0.3l0,0l-0.09,0.13c-0.33,0.48-0.67,0.97-1.03,1.52l-0.63,0.97
			c-0.03,0.04-0.05,0.09-0.08,0.13l-0.08,0.12c-0.15,0.23-0.3,0.46-0.44,0.7l-0.55,0.93c-0.19,0.31-0.38,0.63-0.56,0.95
			c-0.1,0.18-0.2,0.36-0.3,0.54l-0.3,0.55c-0.16,0.28-0.31,0.56-0.46,0.84c-0.1,0.2-0.2,0.39-0.3,0.59l-0.28,0.56
			c-0.14,0.28-0.29,0.56-0.42,0.84c-0.1,0.21-0.2,0.43-0.29,0.63l-0.27,0.6c-0.12,0.27-0.25,0.54-0.37,0.81
			c-0.1,0.24-0.2,0.48-0.29,0.71l-0.26,0.63c-0.1,0.25-0.21,0.5-0.3,0.75c-0.1,0.25-0.19,0.51-0.27,0.76l-0.26,0.72
			c-0.08,0.22-0.16,0.44-0.23,0.67c-0.09,0.27-0.17,0.55-0.26,0.83l-0.21,0.68c-0.07,0.23-0.14,0.45-0.2,0.68
			c-0.08,0.3-0.15,0.59-0.22,0.89l-0.17,0.69c-0.06,0.22-0.11,0.44-0.16,0.66c-0.08,0.36-0.15,0.72-0.21,1.08l-0.12,0.62
			c-0.04,0.19-0.08,0.39-0.11,0.58c-0.07,0.43-0.12,0.87-0.18,1.31l-0.07,0.51c-0.02,0.17-0.05,0.34-0.07,0.51
			c-0.08,0.78-0.14,1.57-0.17,2.36c-0.28,6.87,0.5,15.53,2.32,25.76c-21.12,18.21-19.04,26.66-9.29,41.44
			c0.99,1.5,2.07,3.09,3.21,4.76l2.68,3.96c0.35,0.52,0.7,1.05,1.06,1.59l0.23,0.35c0.38,0.57,0.76,1.15,1.14,1.74l0.15,0.24
			c0.41,0.63,0.82,1.28,1.24,1.94c0.36,0.56,0.98,0.88,1.54,0.81c0.62-0.02,1.19-0.38,1.48-0.93l8.66-16.52
			c0.8,0.37,1.35,1.18,1.35,2.09v16.17c-0.06,0.17-0.08,0.35-0.08,0.54c0,0.06-0.06,6.31-4.33,10.46
			c-2.65,2.58-6.41,3.88-11.19,3.86l-0.78-0.01c-0.03,0-0.05,0-0.08,0h-0.04c-8.45,0-16.46,3.54-22.15,9.75
			c-3.48-2.97-7.86-4.59-12.46-4.59c-7.36,0-14.17,4.3-17.35,10.97c-0.33,0.7-0.16,1.54,0.42,2.06c1.99,1.77,4.16,3.33,6.45,4.66
			l54.28,31.34c5.95,3.43,12.74,5.25,19.64,5.25c0,0,0,0,0.01,0c6.91,0,13.7-1.81,19.65-5.25l54.28-31.34
			c2.29-1.32,4.46-2.89,6.45-4.66c0.58-0.51,0.75-1.36,0.42-2.06C220.34,206.76,213.53,202.46,206.17,202.46z"
        />
        <path
          class="st1 rocket-mask-item"
          d="M67.25,192.94c0-8.67-7.06-15.73-15.73-15.73c-0.17,0-0.34,0.01-0.5,0.02l-0.19,0.01
			c-0.94,0.04-1.67,0.8-1.67,1.74v7.12c0,7.33,2.06,14.51,5.96,20.77c0.32,0.52,0.87,0.82,1.48,0.82c0.22,0,0.44-0.04,0.64-0.12
			C63.32,205.21,67.25,199.46,67.25,192.94z"
        />
        <path
          class="st1"
          d="M84.3,196.38c4.82,0,8.74-3.92,8.74-8.74c0-4.82-3.92-8.74-8.74-8.74c-4.82,0-8.74,3.92-8.74,8.74
			C75.56,192.46,79.48,196.38,84.3,196.38z"
        />
        <path
          class="st1"
          d="M112.94,191.13c0-2.89-2.35-5.24-5.24-5.24c-2.89,0-5.24,2.35-5.24,5.24c0,2.89,2.35,5.24,5.24,5.24
			C110.59,196.38,112.94,194.02,112.94,191.13z"
        />
        <path
          class="st1"
          d="M234.65,177.25l-0.2-0.01c-0.17-0.01-0.33-0.02-0.5-0.02c-8.67,0-15.73,7.06-15.73,15.73
			c0,6.52,3.93,12.26,10.01,14.64c0.2,0.08,0.42,0.12,0.64,0.12c0.61,0,1.16-0.31,1.48-0.82c3.9-6.26,5.96-13.44,5.96-20.78v-7.12
			C236.31,178.06,235.58,177.29,234.65,177.25z"
        />
        <path
          class="st1"
          d="M201.17,196.38c4.82,0,8.74-3.92,8.74-8.74c0-4.82-3.92-8.74-8.74-8.74c-4.82,0-8.74,3.92-8.74,8.74
			C192.43,192.46,196.35,196.38,201.17,196.38z"
        />
        <ellipse
          transform="matrix(0.9999 -0.0161 0.0161 0.9999 -3.0584 2.8908)"
          class="st1"
          cx="177.77"
          cy="191.13"
          rx="5.24"
          ry="5.24"
        />
        <path
          class="rocket-window"
          d="M143.97,78.61c-6.9,0-12.51,5.61-12.51,12.51s5.61,12.51,12.51,12.51s12.51-5.61,12.51-12.51
        S150.87,78.61,143.97,78.61z"
        />
      </g>
    </mask>
  </g>
  <g id="text">
    <g>
      <g>
        <path
          class="text"
          d="M337.68,180.25c-2.21-3.87-8.3-7.55-15.31-7.55c-9.04,0-13.38,3.97-13.38,9c0,5.9,6.64,7.55,14.39,8.51
				c13.47,1.74,26.02,5.42,26.02,21.57c0,15.09-12.73,21.58-27.12,21.58c-13.19,0-23.34-4.26-28.14-16.64l10.15-5.51
				c2.86,7.45,10.33,10.74,18.18,10.74c7.66,0,14.85-2.81,14.85-10.16c0-6.39-6.37-9-14.95-9.97c-13.19-1.64-25.37-5.32-25.37-20.51
				c0-13.93,13.1-19.64,25-19.74c10.06,0,20.48,3,25.37,13.45L337.68,180.25z"
        />
        <path
          class="text"
          d="M383.16,191.86l17.16-27.96h14.67v0.58l-25.74,39.18v27.96h-12.18v-27.96l-24.82-39.18v-0.58h14.48
				L383.16,191.86z"
        />
        <path
          class="text"
          d="M462.79,163.8h12.18v67.82h-7.57v0.1l-33.95-45.76v45.67h-12.18V163.9h9.87l31.64,41.99V163.8z"
        />
        <path
          class="text"
          d="M502.83,175.51h-20.48V163.9c18.64,0,34.41,0,53.14,0v11.61h-20.48v56.11h-12.18V175.51z"
        />
        <path
          class="text"
          d="M588.72,218.85h-33.77l-5.54,12.77h-13.19l28.97-67.72h13.29l28.97,67.72h-13.28L588.72,218.85z
				 M571.84,178.12l-11.99,28.83h23.99L571.84,178.12z"
        />
        <path
          class="text"
          d="M655.8,163.9h13.38v0.58l-21.87,32.9l22.51,33.86v0.39h-13.65l-16.51-25.45l-16.51,25.45h-13.65v-0.39
				l22.42-33.86l-21.77-32.9v-0.58h13.38l16.15,25.25L655.8,163.9z"
        />
      </g>
      <g>
        <path
          class="text"
          d="M348.42,150.27h-6.16l-21.01-24.13h-16.59v24.13h-4.69V86.53c8.94,0,17.8,0,26.75,0
				c13.2,0,19.89,9.92,19.97,19.85c0.09,10.38-6.43,19.48-19.71,19.48L348.42,150.27z M304.65,121.49h21.54
				c10.59,0,15.28-6.28,15.37-15.2c0.09-7.47-4.78-15.21-14.85-15.21h-22.06V121.49z"
        />
        <path
          class="text"
          d="M404.6,150.27l-6.69-15.66h-36.3l-6.6,15.66h-5.04l27.27-63.73h5.12l27.27,63.73H404.6z M396.09,130.05
				l-16.33-38.79l-16.32,38.79H396.09z"
        />
        <path
          class="text"
          d="M419.53,86.53l40.9,52.72V86.53h4.6v63.73h-1.82l-40.99-52.62v52.62h-4.69V86.53H419.53z"
        />
        <path
          class="text"
          d="M529.55,117.67c0.35,16.21-9.55,32.59-30.83,32.59c-6.86,0-13.72,0-20.58,0V86.53c6.86,0,13.72,0,20.58,0
				C519.3,86.53,529.2,102.01,529.55,117.67z M482.83,91.18v54.35h15.89c18.06,0,26.4-14.2,26.14-27.86
				c-0.26-13.29-8.6-26.49-26.14-26.49H482.83z"
        />
        <path
          class="text"
          d="M599.71,118.49c-0.09,16.75-10.25,32.87-30.65,32.87c-20.41,0-30.65-16.21-30.65-33.05
				c0-17.12,10.16-32.78,30.65-32.78S599.79,101.28,599.71,118.49z M543,118.4c0.09,14.38,8.77,28.41,26.05,28.41
				c17.37,0,26.14-14.02,26.14-28.41c0-14.75-8.68-28.32-26.14-28.32C551.6,90.08,542.92,103.38,543,118.4z"
        />
        <path
          class="text"
          d="M663.88,93.64l-23.27,37.33h-1.56L615.6,93.64v56.63h-4.69V86.53c2.26,0,3.3,0,5.56,0l23.27,37.15
				l23.01-37.15h5.73v63.73h-4.6V93.64z"
        />
      </g>
    </g>
  </g>
</svg>